<?xml version="1.0" encoding="utf-8"?>
<!-- Generator: Adobe Illustrator 21.0.0, SVG Export Plug-In . SVG Version: 6.00 Build 0)  -->
<svg version="1.1" id="Layer_1" xmlns="http://www.w3.org/2000/svg" xmlns:xlink="http://www.w3.org/1999/xlink" x="0px" y="0px"
	 viewBox="0 0 200 100" style="enable-background:new 0 0 200 100;" xml:space="preserve">
<style type="text/css">
	.st0{fill:#D1D3D4;}
	.st1{fill:#3F3C3C;}
</style>
<rect class="st0" width="200" height="100"/>
<g>
	<g>
		<path class="st1" d="M23.6,23.3h8.3l6.7,10.9l6.7-10.9h8.3v28.2h-7.8V35.3l-7.2,11h-0.2l-7.1-11v16.1h-7.7V23.3z"/>
		<path class="st1" d="M58.7,23.3h7.8v28.2h-7.8V23.3z"/>
		<path class="st1" d="M69.5,47.3l4.4-5.2c2.8,2.2,5.8,3.4,9.2,3.4c2.1,0,3.2-0.7,3.2-1.9l0,0c0-1.2-0.9-1.8-4.8-2.7
			c-6-1.4-10.6-3.1-10.6-8.8v-0.1c0-5.3,4.1-9,10.9-9c4.8,0,8.5,1.3,11.6,3.7l-3.9,5.5c-2.6-1.8-5.4-2.8-7.9-2.8
			c-1.9,0-2.8,0.8-2.8,1.8v0.1c0,1.3,0.9,1.8,4.9,2.7c6.4,1.4,10.5,3.5,10.5,8.7v0.1c0,5.7-4.5,9.2-11.4,9.2
			C77.7,51.9,73,50.4,69.5,47.3z"/>
		<path class="st1" d="M104,30.1h-8.4v-6.9h24.7v6.9h-8.4v21.3H104L104,30.1L104,30.1z"/>
		<path class="st1" d="M123.6,23.3h22.6v6.6h-14.9v4.3h13.6v6.1h-13.5v4.5h15.1v6.6h-22.9V23.3z"/>
		<path class="st1" d="M150.5,23.3h13.3c4.3,0,7.3,1.1,9.2,3c1.7,1.7,2.5,3.8,2.5,6.6v0.1c0,4.4-2.3,7.2-5.8,8.7l6.7,9.8h-9
			l-5.7-8.5h-3.5v8.5h-7.8L150.5,23.3L150.5,23.3z M163.5,36.8c2.6,0,4.2-1.3,4.2-3.4v-0.1c0-2.2-1.7-3.4-4.3-3.4h-5.1v6.8H163.5z"
			/>
	</g>
	<g>
		<path class="st1" d="M28.8,64h-5.2v-4.2h15.2V64h-5.2v13.2h-4.8C28.8,77.1,28.8,64,28.8,64z"/>
		<path class="st1" d="M43.4,59.8h14v4.1h-9.3v2.7h8.3v3.8h-8.3v2.8h9.3v4.1H43.4V59.8z"/>
		<path class="st1" d="M62.4,59.8h5.1l4.1,6.7l4.1-6.7h5.1v17.4h-4.8v-10L71.6,74h-0.1l-4.4-6.8v10h-4.7L62.4,59.8L62.4,59.8z"/>
		<path class="st1" d="M86.5,59.8h7.4c4.4,0,7.2,2.2,7.2,6.1v0.1c0,4.1-3.1,6.3-7.4,6.3h-2.4v5h-4.8L86.5,59.8L86.5,59.8z
			 M93.6,68.4c1.7,0,2.8-0.9,2.8-2.3V66c0-1.5-1.1-2.2-2.8-2.2h-2.3v4.6H93.6z"/>
		<path class="st1" d="M105.7,59.8h4.8V73h8.4v4.2h-13.2V59.8z"/>
		<path class="st1" d="M129.5,59.7h4.7l7.4,17.5h-5.1l-1.2-3.1h-6.7l-1.2,3.1h-5L129.5,59.7z M133.7,70.2l-1.9-4.9l-1.9,4.9H133.7z"
			/>
		<path class="st1" d="M147.7,64h-5.2v-4.2h15.2V64h-5.2v13.2h-4.8V64z"/>
		<path class="st1" d="M162.3,59.8h14v4.1h-9.2v2.7h8.3v3.8h-8.3v2.8h9.3v4.1h-14.1V59.8z"/>
	</g>
</g>
</svg>
