<?xml version="1.0" encoding="utf-8"?>
<!-- Generator: Adobe Illustrator 21.1.0, SVG Export Plug-In . SVG Version: 6.00 Build 0)  -->
<svg version="1.1" id="Layer_1" xmlns="http://www.w3.org/2000/svg" xmlns:xlink="http://www.w3.org/1999/xlink" x="0px" y="0px"
	 viewBox="0 0 330 67" style="enable-background:new 0 0 330 67;" xml:space="preserve">
<style type="text/css">
	.st0{fill:#22558E;}
	.st1{fill:#8CB64E;}
	.st2{fill:#92A8AA;}
	.st3{fill:#94A3A2;}
</style>
<g>
	<g>
		<path class="st0" d="M105.4,12.7c-3-2.6-6.2-3.3-8.3-3.3c-1.8,0-2.7,1-2.7,1.9c0,0.6,0.2,1.6,2,2.2l6.2,2.1c5.9,2,9,5.9,9,10.9
			c0,7.3-6,12.1-14.4,12.1c-7.1,0-12.6-2.6-16.1-5.9l6-7.9c2.4,2.2,6.3,4.4,9.6,4.4c2.1,0,3.2-1.2,3.2-2.2c0-1.1-0.4-1.8-3.1-2.7
			l-5.5-1.9c-5.8-2-8.6-6.3-8.6-11C82.8,5.5,88.1,0,97,0c4.9,0,10.2,1.3,14.3,5.2L105.4,12.7z"/>
		<path class="st0" d="M142.8,10.4h-6.5v27.7h-11V10.4h-10.5V0.6h33.8L142.8,10.4z"/>
		<path class="st0" d="M251,10.4h-6.5v27.7h-11V10.4H223V0.6h33.8L251,10.4z"/>
		<path class="st0" d="M168.3,38.1l-1.9-6.3H157l-1.8,6.3h-11.4l11.3-37.5h13.5l11.3,37.5H168.3z M161.7,13.1h-0.2l-2.5,9.3h5.2
			L161.7,13.1z"/>
		<path class="st0" d="M196.3,38.1h-10.6V0.6h13L208,20V0.6h10.6v37.5h-13l-9.5-19.3V38.1z"/>
		<path class="st0" d="M307.6,38.1h-10.6V0.6h13l9.4,19.3V0.6H330v37.5h-13l-9.5-19.3V38.1z"/>
		<path class="st0" d="M272.9,0c-4,0-7.6,1.1-10.7,3l-8.9,14.9c0,0.5-0.1,1-0.1,1.5c0,11.3,8.8,19.4,19.7,19.4
			c10.9,0,19.7-8.1,19.7-19.4C292.6,8.1,283.8,0,272.9,0z M272.9,28.7c-5,0-8.2-4-8.2-9.3c0-5.4,3.2-9.3,8.2-9.3
			c5,0,8.2,3.9,8.2,9.3C281.1,24.7,277.9,28.7,272.9,28.7z"/>
	</g>
	<g>
		<polygon class="st1" points="41.8,67 0,67 0,29.7 		"/>
		<polygon class="st2" points="6.3,0.7 69.5,0.7 69.5,36.4 		"/>
		<polygon class="st0" points="69.5,46.1 69.5,67 52.4,67 0,22.8 0,2.8 		"/>
	</g>
	<g>
		<path class="st3" d="M93.3,51.2v2.9h-7.2v3.4h5.8v2.8h-5.8v3.7h7.2V67H83V51.2H93.3z"/>
		<path class="st3" d="M110.3,51.2V67h-3.1l-6.1-10.7V67h-3V51.2h3.3l5.9,10.4V51.2H110.3z"/>
		<path class="st3" d="M123.6,54.5c0-0.3-0.2-0.4-0.4-0.4h-4.2c-0.3,0-0.4,0.2-0.4,0.4v9.1c0,0.3,0.2,0.4,0.4,0.4h4.2
			c0.3,0,0.4-0.2,0.4-0.4v-2.7h-2.9v-2.8h6v5.7c0,2-1.1,3.1-3.1,3.1h-5.3c-2,0-3.1-1.1-3.1-3.1v-9.6c0-2,1.1-3.1,3.1-3.1h5.3
			c2,0,3.1,1.1,3.1,3.1v2h-3.2V54.5z"/>
		<path class="st3" d="M131.7,51.2h3.2V67h-3.2V51.2z"/>
		<path class="st3" d="M152.2,51.2V67h-3.1L143,56.3V67h-3V51.2h3.3l5.9,10.4V51.2H152.2z"/>
		<path class="st3" d="M167.8,51.2v2.9h-7.2v3.4h5.8v2.8h-5.8v3.7h7.2V67h-10.3V51.2H167.8z"/>
		<path class="st3" d="M182.9,51.2v2.9h-7.2v3.4h5.8v2.8h-5.8v3.7h7.2V67h-10.3V51.2H182.9z"/>
		<path class="st3" d="M196,67l-2.5-5.8h-2.5V67h-3.2V51.2h8.1c2,0,3.1,1.1,3.1,3.1v3.8c0,1.6-0.7,2.7-2.1,3l2.6,5.9H196z
			 M195.3,58.3c0.3,0,0.4-0.2,0.4-0.4v-3.4c0-0.3-0.2-0.4-0.4-0.4h-4.4v4.3H195.3z"/>
		<path class="st3" d="M204.2,51.2h3.2V67h-3.2V51.2z"/>
		<path class="st3" d="M224.7,51.2V67h-3.1l-6.1-10.7V67h-3V51.2h3.3l5.9,10.4V51.2H224.7z"/>
		<path class="st3" d="M238,54.5c0-0.3-0.2-0.4-0.4-0.4h-4.2c-0.3,0-0.4,0.2-0.4,0.4v9.1c0,0.3,0.2,0.4,0.4,0.4h4.2
			c0.3,0,0.4-0.2,0.4-0.4v-2.7h-2.9v-2.8h6v5.7c0,2-1.1,3.1-3.1,3.1h-5.3c-2,0-3.1-1.1-3.1-3.1v-9.6c0-2,1.1-3.1,3.1-3.1h5.3
			c2,0,3.1,1.1,3.1,3.1v2H238V54.5z"/>
		<path class="st3" d="M261.7,54.5c0-0.3-0.2-0.4-0.4-0.4H257c-0.3,0-0.4,0.2-0.4,0.4v9.1c0,0.3,0.2,0.4,0.4,0.4h4.2
			c0.3,0,0.4-0.2,0.4-0.4v-2.7h-2.9v-2.8h6v5.7c0,2-1.1,3.1-3.1,3.1h-5.3c-2,0-3.1-1.1-3.1-3.1v-9.6c0-2,1.1-3.1,3.1-3.1h5.3
			c2,0,3.1,1.1,3.1,3.1v2h-3.2V54.5z"/>
		<path class="st3" d="M278,67l-2.5-5.8H273V67h-3.2V51.2h8.1c2,0,3.1,1.1,3.1,3.1v3.8c0,1.6-0.7,2.7-2.1,3l2.6,5.9H278z
			 M277.4,58.3c0.3,0,0.4-0.2,0.4-0.4v-3.4c0-0.3-0.2-0.4-0.4-0.4H273v4.3H277.4z"/>
		<path class="st3" d="M288.8,67c-2,0-3.1-1.1-3.1-3.1v-9.6c0-2,1.1-3.1,3.1-3.1h5.4c2,0,3.1,1.1,3.1,3.1v9.6c0,2-1.1,3.1-3.1,3.1
			H288.8z M288.9,63.6c0,0.3,0.2,0.4,0.4,0.4h4.3c0.3,0,0.4-0.2,0.4-0.4v-9.1c0-0.3-0.2-0.4-0.4-0.4h-4.3c-0.3,0-0.4,0.2-0.4,0.4
			V63.6z"/>
		<path class="st3" d="M313.7,63.9c0,2-1.1,3.1-3.1,3.1h-5.3c-2,0-3.1-1.1-3.1-3.1V51.2h3.2v12.4c0,0.3,0.2,0.4,0.4,0.4h4.3
			c0.3,0,0.4-0.2,0.4-0.4V51.2h3.2V63.9z"/>
		<path class="st3" d="M326.9,51.2c2,0,3.1,1.1,3.1,3.1v4.1c0,2-1.1,3.1-3.1,3.1H322V67h-3.2V51.2H326.9z M326.4,58.5
			c0.3,0,0.4-0.2,0.4-0.4v-3.5c0-0.3-0.2-0.4-0.4-0.4H322v4.4H326.4z"/>
	</g>
</g>
</svg>
